<svg width="18" height="17" viewBox="0 0 18 17" fill="none" xmlns="http://www.w3.org/2000/svg">
<path fill-rule="evenodd" clip-rule="evenodd" d="M5.875 3.625C5.875 1.89911 7.27411 0.5 9 0.5C10.7259 0.5 12.125 1.89911 12.125 3.625C12.125 5.35089 10.7259 6.75 9 6.75C7.27411 6.75 5.875 5.35089 5.875 3.625Z" fill="#448FFF"/>
<path fill-rule="evenodd" clip-rule="evenodd" d="M12.125 6.125C12.125 4.74429 13.2443 3.625 14.625 3.625C16.0057 3.625 17.125 4.74429 17.125 6.125C17.125 7.50571 16.0057 8.625 14.625 8.625C13.2443 8.625 12.125 7.50571 12.125 6.125Z" fill="#448FFF"/>
<path fill-rule="evenodd" clip-rule="evenodd" d="M0.875 6.125C0.875 4.74429 1.99429 3.625 3.375 3.625C4.75571 3.625 5.875 4.74429 5.875 6.125C5.875 7.50571 4.75571 8.625 3.375 8.625C1.99429 8.625 0.875 7.50571 0.875 6.125Z" fill="#448FFF"/>
<path fill-rule="evenodd" clip-rule="evenodd" d="M4.25822 10.5979C5.25653 9.03701 7.00696 8 9 8C10.9933 8 12.7439 9.03726 13.7422 10.5985C14.4323 11.6779 14.7309 12.9793 14.5908 14.2483C14.5689 14.4466 14.4537 14.6225 14.2806 14.7218C12.7245 15.6147 10.9209 16.125 9 16.125C7.0791 16.125 5.27549 15.6147 3.71937 14.7218C3.54633 14.6225 3.43108 14.4466 3.40919 14.2483C3.26911 12.9791 3.56784 11.6774 4.25822 10.5979Z" fill="#448FFF"/>
<path d="M3.23524 9.87807C3.2252 9.89349 3.21523 9.90895 3.20531 9.92445C2.40076 11.1824 2.03257 12.6806 2.14559 14.1575C1.63889 14.0805 1.14725 13.9567 0.675357 13.7906L0.579558 13.7568C0.404799 13.6953 0.28269 13.5366 0.267992 13.3519L0.259936 13.2506C0.253348 13.1678 0.25 13.0842 0.25 13C0.25 11.3209 1.5742 9.95118 3.23524 9.87807Z" fill="#448FFF"/>
<path d="M15.8547 14.1575C15.9677 12.6808 15.5997 11.183 14.7954 9.92515C14.7854 9.90942 14.7753 9.89373 14.7651 9.87808C16.426 9.95135 17.75 11.321 17.75 13C17.75 13.0842 17.7467 13.1678 17.7401 13.2506L17.732 13.3519C17.7173 13.5366 17.5952 13.6953 17.4204 13.7568L17.3246 13.7906C16.8528 13.9567 16.3613 14.0805 15.8547 14.1575Z" fill="#448FFF"/>
</svg>
